# Blender 3.3.1
# www.blender.org
mtllib Pizarron.mtl
o Pizarron
v -6.076881 -2.983397 0.060557
v -6.076881 2.983397 0.060557
v -6.076881 -2.983397 -0.078547
v 6.076881 -2.983397 0.060557
v 6.076881 2.983397 0.060557
v 6.076881 -2.983397 -0.078547
v -6.076881 -3.060294 -0.078547
v -6.076881 -3.060294 0.078547
v 6.076881 -3.060294 -0.078547
v 6.076881 -3.060294 0.078547
v -6.076881 -2.983397 0.309240
v 6.076881 -2.983397 0.309240
v -6.076881 -3.060294 0.309240
v 6.076881 -3.060294 0.309240
v -6.141706 -3.023450 -0.079601
v -6.141706 3.023450 -0.079601
v 6.141706 3.023450 -0.079601
v 6.141706 -3.023450 -0.079601
v -6.109968 -3.003840 0.079085
v -6.141706 -3.023450 0.050662
v -6.132411 -3.017706 0.070974
v -6.109856 3.003770 0.079083
v -6.141706 3.023450 0.050662
v -6.132377 3.017685 0.070974
v 6.141706 -3.023450 0.050662
v 6.109968 -3.003840 0.079085
v 6.132411 -3.017706 0.070974
v 6.141706 3.023450 0.050662
v 6.109856 3.003770 0.079083
v 6.132377 3.017685 0.070974
v -6.076881 -3.060294 0.264876
v -6.076881 -2.983397 0.264876
v 6.076881 -2.983397 0.264876
v 6.076881 -3.060294 0.264876
v -6.058289 -2.955798 0.290648
v -6.076881 -2.974391 0.309240
v -6.071436 -2.961243 0.303795
v 6.076881 -2.974391 0.309240
v 6.058289 -2.955798 0.290648
v 6.071436 -2.961243 0.303795
v 6.076881 -2.974391 0.264876
v 6.058289 -2.955798 0.283469
v 6.071436 -2.961243 0.270322
v -6.058289 -2.955798 0.283469
v -6.076881 -2.974391 0.264876
v -6.071436 -2.961243 0.270322
vn -0.0000 1.0000 -0.0000
vn -0.0000 0.9932 0.1168
vn -0.2870 -0.0000 0.9579
vn 0.2870 -0.0000 0.9579
vn 1.0000 -0.0000 -0.0000
vn -0.0000 -1.0000 -0.0000
vn -1.0000 -0.0000 -0.0000
vn -0.0000 -0.0000 -1.0000
vn -0.0000 -0.0000 1.0000
vn 0.9856 0.1693 -0.0000
vn 0.4892 -0.0000 0.8722
vn -0.4892 -0.0000 0.8722
vn -0.0000 -0.6728 0.7399
vn -0.5256 -0.8507 -0.0000
vn -0.9809 -0.0000 0.1947
vn -0.9809 -0.0000 0.1946
vn 0.9809 -0.0000 0.1946
vn 0.9809 -0.0000 0.1947
vn -0.3394 -0.0000 0.9407
vn -0.9090 -0.0000 0.4168
vn 0.3393 -0.0000 0.9407
vn 0.9090 -0.0000 0.4168
vn -0.0000 0.9620 0.2730
vn -0.0000 0.5035 0.8640
vn 0.5256 -0.8507 -0.0000
vn -0.9856 0.1693 -0.0000
vn -0.0000 0.1693 -0.9856
vn -0.0000 0.1693 0.9856
vn -0.0000 0.3827 0.9239
vn -0.0000 0.9239 0.3827
vn 0.1481 0.9778 0.1481
vn -0.1481 0.9778 0.1481
vn 0.1481 0.9778 -0.1481
vn 0.3826 0.9239 -0.0000
vn 0.9239 0.3827 -0.0000
vn -0.1481 0.9778 -0.1481
vn -0.3826 0.9239 -0.0000
vn -0.9239 0.3827 -0.0000
vn -0.0000 0.9239 -0.3827
vn -0.0000 0.3827 -0.9239
vt 0.000000 0.000000
vt 0.367014 0.091971
vt 0.000000 1.000000
vt 0.028348 0.328961
vt 0.445642 0.072613
vt 1.000000 0.000000
vt 0.373553 0.945935
vt 1.000000 1.000000
vt 0.051847 0.843636
vt 0.445642 0.924581
vt 0.436068 0.118327
vt 0.424134 0.126599
vt 0.430141 0.893953
vt 0.418749 0.888693
vt 0.405213 0.341105
vt 0.402073 0.722725
vt 0.411484 0.340290
vt 0.406827 0.727000
vt 0.417694 0.000067
vt 0.000067 0.297191
vt 0.029657 0.880310
vt 0.437525 0.999933
vt 0.363555 0.081274
vt 0.365997 0.057089
vt 0.361926 0.070918
vt 0.023181 0.322996
vt 0.008679 0.306189
vt 0.016596 0.313808
vt 0.377692 0.973078
vt 0.372169 0.954989
vt 0.372196 0.963396
vt 0.036211 0.869693
vt 0.048094 0.850240
vt 0.042595 0.860643
vt 0.416617 0.326323
vt 0.374665 0.328371
vt 0.376739 0.734675
vt 0.412432 0.745051
vt 0.391812 0.359994
vt 0.400824 0.347291
vt 0.396284 0.354259
vt 0.402055 0.721457
vt 0.394004 0.706574
vt 0.397803 0.713888
vt 0.381055 0.723858
vt 0.390841 0.705761
vt 0.386142 0.712691
vt 0.388791 0.359580
vt 0.379621 0.339053
vt 0.384523 0.350497
s 1
usemtl wood
f 17/21/1 16/20/1 23/27/2 28/32/2
f 6/10/5 4/7/5 10/14/5 9/13/5
f 7/11/6 9/13/6 10/14/6 8/12/6
f 32/36/7 31/35/7 13/17/7 11/15/7
f 3/5/8 6/10/8 9/13/8 7/11/8
f 1/2/7 3/5/7 7/11/7 8/12/7
f 12/16/9 11/15/9 13/17/9 14/18/9
f 34/38/5 33/37/5 12/16/5 14/18/5
f 12/16/5 33/37/5 41/45/10 38/42/10
f 31/35/6 34/38/6 14/18/6 13/17/6
f 1/2/4 2/4/4 22/26/11 19/23/11
f 5/9/3 4/7/3 26/30/12 29/33/12
f 2/4/13 5/9/13 29/33/13 22/26/13
f 4/7/14 6/10/14 18/22/14 25/29/14 27/31/14 26/30/14
f 20/24/15 23/27/16 16/20/7 15/19/7
f 18/22/5 17/21/5 28/32/17 25/29/18
f 19/23/19 22/26/19 24/28/19 21/25/19
f 21/25/20 24/28/20 23/27/16 20/24/15
f 29/33/21 26/30/21 27/31/21 30/34/21
f 30/34/22 27/31/22 25/29/18 28/32/17
f 28/32/2 23/27/2 24/28/23 30/34/23
f 30/34/24 24/28/24 22/26/24 29/33/24
f 3/5/25 1/2/25 19/23/25 21/25/25 20/24/25 15/19/25
f 8/12/6 10/14/6 34/38/6 31/35/6
f 4/7/1 1/2/1 32/36/1 33/37/1
f 10/14/5 4/7/5 33/37/5 34/38/5
f 1/2/7 8/12/7 31/35/7 32/36/7
f 32/36/7 11/15/7 36/40/26 45/49/26
f 33/37/8 32/36/8 45/49/27 41/45/27
f 11/15/9 12/16/9 38/42/28 36/40/28
f 36/40/28 38/42/28 40/44/29 37/41/29
f 37/41/30 40/44/30 39/43/31 35/39/32
f 42/46/33 39/43/31 40/44/34 43/47/34
f 43/47/35 40/44/35 38/42/10 41/45/10
f 35/39/32 44/48/36 46/50/37 37/41/37
f 37/41/38 46/50/38 45/49/26 36/40/26
f 44/48/36 42/46/33 43/47/39 46/50/39
f 46/50/40 43/47/40 41/45/27 45/49/27
f 42/46/33 44/48/36 35/39/32 39/43/31
usemtl chalkboard
f 4/6/3 5/8/3 2/3/4 1/1/4
